<svg xmlns="http://www.w3.org/2000/svg" xmlns:xlink="http://www.w3.org/1999/xlink" width="2000" height="800" viewBox="0 0 1000 400">
  <defs>
    <style>
      .cls-1 {
        fill: #0a0a11;
        fill-rule: evenodd;
        filter: url(#filter);
      }
    </style>
    <filter id="filter" x="44.125" y="97.188" width="912.594" height="205.594" filterUnits="userSpaceOnUse">
      <feFlood result="flood" flood-color="#fefefe"/>
      <feComposite result="composite" operator="in" in2="SourceGraphic"/>
      <feBlend result="blend" in2="SourceGraphic"/>
    </filter>
  </defs>
  <path class="cls-1" d="M44.484,209.554a138.867,138.867,0,0,1,0-19.83c7.6-82.121,108.049-121.7,170.748-67.932,56.7,48.623,43.775,141.421-24.475,171.9C126.515,322.378,50.5,280.167,44.484,209.554Zm33.1,60.134c48.05,48,131.226,33.823,159.637-27.741,40.88-88.584-56.483-175.8-140.435-126.393C42.132,147.723,32.71,224.861,77.589,269.688Zm451.3-155.318,16.379,80.321L560.16,114.37H608.3V285.9H576.539V158L556.11,269.1l-25.187-.108L508.047,158V285.9h-26.8V114.37h47.647Zm244.189,0v65.439h32.757V114.37H837.6L836.61,285.9H805.838V210.545H773.081V285.9H743.3V114.37h29.779ZM360.143,285.9L393.361,114.3l45.1,0.172L467.348,285.9H437.073l-7.582-39.526-34.5-.025L388.93,285.9H360.143Zm64.522-68.413-12.408-75.364-12.408,75.364h24.816ZM622.2,285.9L653.427,115.32l46.616-1.009L728.413,285.9H697.641l-6-39.607-34.556.081L649.994,285.9H622.2Zm64.522-68.413-12.408-75.364-12.408,75.364h24.816ZM850.507,285.9l33.218-171.594,45.1,0.171L956.72,285.9H925.948l-6.059-39.554-34.591-.053L877.805,285.9h-27.3Zm64.522-68.413-12.895-74.363-11.921,74.363h24.816ZM299.592,114.37l20.339,65.445,22.841-65.445h27.3L335.327,216v69.9H301.578c2.753-6.42-.012-13.883-0.046-20.276-0.077-14.8.607-29.8,1-44.545L268.821,114.37h30.771Zm-159.021-1.686c60.5-5.249,107.616,51.96,91.781,110.514-19.338,71.509-115.16,87.43-156.912,26.328C37.4,193.856,73.729,118.483,140.571,112.684Zm-6.749,111.742v41.643h8.933V218.477c4.405-2.349,5.526-2.345,9.927,0v47.592h8.933V224.426c6.909,3.224,11.07,6.707,19.273,5.871,4.008-.409,4.58-2.878,9.518-0.43,5.092,2.524,2.754,5.262,4.436,7.476,0.688,0.905,19.707,4.61,22.159,4.687,1,0.031,3.088.138,3.156-1.238,0.076-1.55-13.367-14.956-14.869-17.9-2.217-1.241-4.269.613-6.4,0.513-7.794-.37-7.436-10.274-11.469-15.338-2.923-3.671-7.355-5.159-10.912-7.943l34.255-20.312,1.364-1.484-3.831-6.015-2.959.071-37.76,21.884c-4.76.5-7.138-3.862-5.751-8.311l40.381-24.325-4.339-6.473-36.247,20.684c0.165-6.569.555-12.43-3.148-18.182-2.959-4.6-7.9-5.25-5.589-12.854,0.665-2.185,4.377-3.044,3.61-5.883l-8.3-21.574c-1.6-.384-2.011,1.321-2.535,2.407-0.882,1.824-6.6,17.874-6.729,19.165-0.312,3.049,2.432,3.508,3.627,5.953,3.205,6.555-5.1,10.583-7.241,16.108-1.867,4.812-1.56,9.8-1.511,14.86L97.567,155.15l-4.341,6.481,40.385,24.325,0.04,6.579-6.465,1.429L89.421,172.027l-2.283.285-3.832,6.015,36.616,22.291a25,25,0,0,0-11.444,6.921c-4.393,5.161-3.533,14.588-11.143,15.732-2.564.385-5.135-1.652-7.181-.365l-14.414,17.4,1.027,1.968,23.342-4.427c2.34-13.709,12.025-6.193,21.072-7.714C125.429,229.42,129.83,226.022,133.822,224.426Zm-0.166-10.072c-0.424.678-13.467,7.057-14.317,7.11-2.669.167-5.411-2.951-5.349-5.489,0.066-2.731,12.258-10.176,14.425-10.394C133.319,205.087,135.633,211.186,133.656,214.354Zm19.026-32.562c-4.327,1.945-5.6,1.943-9.927,0v-16.36c0-3.718,9.927-3.719,9.927,0v16.36Zm9.108,25.94a30.422,30.422,0,0,1,4.542-2c2.248-.308,15.046,7.291,15.115,10.244,0.048,2.033-2.345,5.3-4.482,5.509C173.332,221.839,158.131,213.65,161.79,207.732ZM141.978,203.4c-0.534-.919-0.446-4.082-0.213-5.252,1.145-5.762,13.815-5.846,11.919,3.964C152.719,207.111,143.991,206.87,141.978,203.4Z"/>
</svg>
